Hanif_Medium_7_5_grf.mot
version=1
nRows=58
nColumns=19
inDegrees=yes
endheader
time	right_ground_force_vx	right_ground_force_vy	right_ground_force_vz	right_ground_force_px	right_ground_force_py	right_ground_force_pz	right_ground_torque_x	right_ground_torque_y	right_ground_torque_z	left_ground_force_vx	left_ground_force_vy	left_ground_force_vz	left_ground_force_px	left_ground_force_py	left_ground_force_pz	left_ground_torque_x	left_ground_torque_y	left_ground_torque_z
5.100000	-5.986890	270.505000	61.182400	0.193573	0.000000	-1.447910	-15.734900	0.952479	-1.533480	2.541640	303.401000	-70.786900	0.194719	0.000000	-0.969002	19.982400	-5.653080	-0.409720
5.105000	-6.042840	269.160000	61.977700	0.193072	0.000000	-1.447440	-15.782700	1.047190	-1.641100	3.086030	304.500000	-70.462700	0.195030	0.000000	-0.969607	20.229200	-5.758280	-0.309411
5.110000	-5.712000	270.000000	61.970900	0.192836	0.000000	-1.448750	-15.478600	1.052060	-1.719590	3.625640	305.218000	-71.253900	0.194315	0.000000	-0.968460	19.916700	-5.936480	-0.499169
5.115000	-6.250380	268.907000	62.131500	0.191933	0.000000	-1.448810	-15.401000	1.065150	-1.956510	3.239600	305.734000	-71.023500	0.194682	0.000000	-0.968458	19.955400	-6.017120	-0.365172
5.120000	-6.235800	268.043000	61.431000	0.192356	0.000000	-1.449170	-15.252800	0.994363	-1.847380	2.832520	304.515000	-70.796900	0.194770	0.000000	-0.969238	20.119300	-6.039910	-0.317972
5.125000	-6.108470	269.781000	61.860500	0.192137	0.000000	-1.449790	-15.182900	1.013850	-1.921750	2.264940	305.655000	-69.964900	0.194488	0.000000	-0.968837	20.082100	-6.123710	-0.405522
5.130000	-6.375920	270.288000	62.113900	0.191795	0.000000	-1.449560	-15.278200	1.162450	-1.984970	2.161380	305.652000	-69.593000	0.194423	0.000000	-0.968629	20.020000	-6.142130	-0.426788
5.135000	-5.970380	269.402000	62.254100	0.191264	0.000000	-1.449910	-15.133100	1.165200	-2.132400	2.588480	304.159000	-69.823400	0.194455	0.000000	-0.969056	20.043100	-6.239530	-0.382182
5.140000	-5.664140	268.527000	62.513900	0.190095	0.000000	-1.449410	-15.213600	1.192940	-2.451560	2.375440	303.944000	-69.727000	0.194180	0.000000	-0.969077	20.039400	-6.237170	-0.467075
5.145000	-5.227990	268.259000	62.809800	0.190654	0.000000	-1.449060	-15.295700	1.339560	-2.261170	2.038350	303.699000	-68.993900	0.194285	0.000000	-0.969182	20.061100	-6.221550	-0.442437
5.150000	-5.022230	270.409000	63.018300	0.190207	0.000000	-1.450310	-15.080400	1.416870	-2.396510	1.607980	303.310000	-69.155700	0.193835	0.000000	-0.969647	20.184500	-6.240470	-0.568814
5.155000	-4.503790	269.766000	63.160800	0.190203	0.000000	-1.449870	-15.157000	1.333980	-2.416170	1.902180	302.216000	-68.446700	0.193744	0.000000	-0.969487	20.057400	-6.284800	-0.593023
5.160000	-4.090390	272.612000	63.547000	0.189800	0.000000	-1.450530	-15.138900	1.494830	-2.530270	1.989530	301.346000	-68.563600	0.193253	0.000000	-0.970035	20.162400	-6.399950	-0.712752
5.165000	-3.496450	273.822000	63.563500	0.189331	0.000000	-1.450950	-15.089400	1.594350	-2.664140	2.851320	301.221000	-69.025500	0.192615	0.000000	-0.970070	20.148800	-6.412630	-0.915806
5.170000	-2.878100	272.703000	63.941500	0.188844	0.000000	-1.450770	-15.071900	1.640870	-2.787600	3.276690	300.475000	-68.947700	0.192785	0.000000	-0.970202	20.129600	-6.487330	-0.843966
5.175000	-2.298490	273.930000	64.417400	0.188783	0.000000	-1.450870	-15.110100	1.690340	-2.815420	4.159280	302.286000	-69.502900	0.191630	0.000000	-0.970083	20.198500	-6.669680	-1.194440
5.180000	-2.090070	273.906000	64.436600	0.189116	0.000000	-1.450610	-15.179200	1.723640	-2.713560	5.452150	300.792000	-69.969200	0.191249	0.000000	-0.970688	20.255100	-6.762660	-1.287340
5.185000	-1.367260	276.238000	64.879000	0.188845	0.000000	-1.450450	-15.351500	1.780120	-2.815370	6.225880	301.656000	-70.119700	0.191144	0.000000	-0.970229	20.160400	-6.842680	-1.322500
5.190000	-1.188250	275.633000	65.631400	0.189078	0.000000	-1.450460	-15.314700	1.779250	-2.741910	6.546480	303.109000	-70.406900	0.190845	0.000000	-0.970444	20.319000	-6.823880	-1.442300
5.195000	-0.946701	275.889000	65.632000	0.188739	0.000000	-1.451740	-14.974700	1.873300	-2.824660	6.918600	305.792000	-70.814400	0.190742	0.000000	-0.969922	20.334900	-6.834460	-1.507250
5.200000	-0.584367	277.349000	65.980200	0.189070	0.000000	-1.450800	-15.313400	1.904990	-2.742250	7.232420	306.388000	-71.578600	0.190754	0.000000	-0.969916	20.364300	-6.991010	-1.467140
5.205000	0.225085	279.322000	66.209400	0.188749	0.000000	-1.451560	-15.204400	1.920310	-2.867010	7.381780	306.266000	-71.403200	0.190225	0.000000	-0.969806	20.322700	-6.907460	-1.661170
5.210000	0.328373	279.193000	66.780000	0.188765	0.000000	-1.450600	-15.465700	1.968590	-2.849740	7.755530	306.744000	-71.963700	0.190267	0.000000	-0.969247	20.176400	-6.925230	-1.645710
5.215000	0.645981	277.830000	66.894400	0.188640	0.000000	-1.451460	-15.150000	1.950670	-2.877960	7.907140	305.882000	-72.207900	0.190172	0.000000	-0.970139	20.389800	-6.917020	-1.666030
5.220000	1.200370	278.675000	67.695100	0.188482	0.000000	-1.450100	-15.573900	2.091030	-2.907630	7.319160	306.229000	-72.700400	0.190427	0.000000	-0.969983	20.375100	-6.920790	-1.570040
5.225000	1.342070	280.277000	67.570600	0.189154	0.000000	-1.450190	-15.635800	1.994130	-2.753950	7.317620	306.240000	-72.664100	0.190710	0.000000	-0.969535	20.239300	-6.870850	-1.490240
5.230000	1.390060	280.766000	67.264200	0.189420	0.000000	-1.450390	-15.606300	2.033780	-2.672420	6.583540	304.286000	-72.073000	0.190611	0.000000	-0.969735	20.183400	-6.814840	-1.507130
5.235000	0.815975	282.028000	67.494800	0.189414	0.000000	-1.450020	-15.784600	2.088830	-2.667560	5.956540	306.025000	-71.712100	0.191208	0.000000	-0.969323	20.183700	-6.818260	-1.333260
5.240000	0.262901	285.237000	66.847500	0.189941	0.000000	-1.450220	-15.908100	2.090530	-2.540440	5.649220	304.454000	-71.099000	0.190989	0.000000	-0.970126	20.328900	-6.832050	-1.385980
5.245000	-0.441380	283.411000	67.128600	0.190527	0.000000	-1.449000	-16.156800	1.987540	-2.358550	5.513690	303.738000	-70.783500	0.191864	0.000000	-0.970025	20.252200	-6.775910	-1.112480
5.250000	-0.240485	285.873000	67.251300	0.190869	0.000000	-1.449830	-16.059500	2.060850	-2.266910	4.963870	301.917000	-69.950300	0.191810	0.000000	-0.970121	20.168100	-6.795020	-1.108170
5.255000	-0.683993	285.154000	67.285500	0.191382	0.000000	-1.449570	-16.094600	2.001400	-2.112860	4.751920	301.698000	-69.186500	0.192008	0.000000	-0.970789	20.358400	-6.810150	-1.050170
5.260000	-1.074430	286.919000	67.544700	0.192018	0.000000	-1.449190	-16.306600	1.959680	-1.941360	4.797530	300.233000	-68.877200	0.192901	0.000000	-0.971143	20.364900	-6.699580	-0.781646
5.265000	-0.547571	288.855000	67.615000	0.192504	0.000000	-1.448250	-16.683500	1.933110	-1.824060	5.070230	300.250000	-68.121900	0.193808	0.000000	-0.971572	20.488900	-6.672950	-0.519887
5.270000	-0.693017	290.227000	67.776100	0.192822	0.000000	-1.449100	-16.518600	1.993340	-1.722090	5.042510	301.734000	-68.003100	0.193843	0.000000	-0.971542	20.582300	-6.697990	-0.520484
5.275000	-0.389935	291.854000	68.255100	0.192881	0.000000	-1.448920	-16.659900	1.985030	-1.721760	4.971600	299.811000	-67.595100	0.194532	0.000000	-0.972270	20.669200	-6.661360	-0.298490
5.280000	0.624741	294.636000	68.720300	0.192939	0.000000	-1.448520	-16.933200	2.087190	-1.715120	4.751100	300.192000	-67.764900	0.194895	0.000000	-0.971351	20.424900	-6.572610	-0.200044
5.285000	1.254650	295.492000	68.860000	0.193240	0.000000	-1.448750	-16.909400	2.084330	-1.636920	4.839970	301.294000	-66.985500	0.195437	0.000000	-0.972345	20.797700	-6.588990	-0.052401
5.290000	1.585460	296.005000	69.937400	0.193587	0.000000	-1.447850	-17.204400	2.040860	-1.543760	4.210610	300.912000	-67.349700	0.195895	0.000000	-0.973000	20.979800	-6.574260	0.108374
5.295000	1.507010	297.393000	69.420200	0.193263	0.000000	-1.449330	-16.845500	2.063450	-1.650980	4.348090	302.497000	-67.441600	0.195964	0.000000	-0.972701	20.998900	-6.509860	0.102260
5.300000	1.520230	298.232000	69.844400	0.193502	0.000000	-1.448960	-17.003300	2.221500	-1.544380	3.956610	301.523000	-67.524900	0.195951	0.000000	-0.972594	20.906000	-6.506740	0.113534
5.305000	1.441910	299.991000	70.645100	0.192994	0.000000	-1.449370	-16.981300	2.264860	-1.704310	4.322120	300.574000	-67.411100	0.195845	0.000000	-0.972540	20.817100	-6.483650	0.074993
5.310000	1.137390	300.259000	70.625400	0.192657	0.000000	-1.449810	-16.865700	2.207320	-1.822710	4.885460	298.115000	-67.561600	0.194943	0.000000	-0.972212	20.536500	-6.584470	-0.169488
5.315000	1.058510	300.986000	71.317700	0.192850	0.000000	-1.449100	-17.120500	2.236400	-1.757290	5.131700	297.456000	-67.118800	0.193760	0.000000	-0.971651	20.317100	-6.776470	-0.501043
5.320000	0.373063	300.531000	71.351900	0.192513	0.000000	-1.449720	-16.910400	2.232900	-1.851640	6.362000	296.228000	-67.256700	0.193190	0.000000	-0.971591	20.193000	-6.740710	-0.689831
5.325000	0.454277	299.462000	71.496900	0.192437	0.000000	-1.450140	-16.726300	2.255410	-1.861450	6.752800	294.865000	-67.341700	0.192896	0.000000	-0.971640	20.106600	-6.742220	-0.769911
5.330000	-0.084304	299.412000	71.864700	0.192312	0.000000	-1.449760	-16.839800	2.285310	-1.884680	6.868820	293.878000	-67.075200	0.191811	0.000000	-0.970884	19.811800	-6.916660	-1.059830
5.335000	0.047044	297.844000	71.987100	0.193149	0.000000	-1.450000	-16.678000	2.250300	-1.616440	7.043130	291.433000	-67.674800	0.191590	0.000000	-0.972232	20.034900	-6.920040	-1.089400
5.340000	-0.406764	298.598000	71.763000	0.192761	0.000000	-1.450020	-16.717900	2.168850	-1.759560	6.856580	290.909000	-67.741400	0.191526	0.000000	-0.970817	19.589500	-6.933980	-1.092470
5.345000	-0.561617	298.252000	71.854400	0.193195	0.000000	-1.450570	-16.534400	2.188650	-1.612760	6.615500	291.932000	-67.528300	0.191110	0.000000	-0.971035	19.727700	-6.959680	-1.228260
5.350000	-1.689200	297.904000	71.727800	0.193578	0.000000	-1.448790	-17.052800	2.010180	-1.516890	6.338090	292.036000	-67.707000	0.191198	0.000000	-0.970381	19.550600	-6.876190	-1.213590
5.355000	-2.271280	296.544000	71.226900	0.194030	0.000000	-1.449130	-16.877700	1.996220	-1.362040	6.077680	291.062000	-67.658100	0.191502	0.000000	-0.970231	19.445400	-6.872030	-1.104550
5.360000	-2.694420	298.002000	70.960900	0.194324	0.000000	-1.449040	-16.989100	2.003360	-1.273840	5.309470	290.316000	-68.011500	0.191143	0.000000	-0.970360	19.446900	-6.917120	-1.175760
5.365000	-3.185180	297.570000	71.009000	0.195273	0.000000	-1.449420	-16.854900	1.841360	-1.004150	4.921280	291.540000	-67.626300	0.191262	0.000000	-0.970402	19.550500	-6.843130	-1.174040
5.370000	-3.649030	297.799000	70.855200	0.195386	0.000000	-1.448780	-17.061800	1.939040	-0.940646	4.550150	290.664000	-68.181400	0.190486	0.000000	-0.970642	19.569400	-6.808860	-1.392420
5.375000	-3.965960	297.354000	70.321500	0.195810	0.000000	-1.449390	-16.856100	1.842490	-0.826690	4.038460	292.293000	-67.594400	0.190782	0.000000	-0.969733	19.422500	-6.905520	-1.303780
5.380000	-4.718370	298.495000	70.055200	0.196171	0.000000	-1.448590	-17.166500	1.810310	-0.717530	3.722430	293.383000	-67.778500	0.191563	0.000000	-0.970071	19.601500	-6.813600	-1.091060
5.385000	-5.106920	296.852000	69.929600	0.196282	0.000000	-1.447960	-17.262000	1.879170	-0.652472	3.500140	293.656000	-67.538700	0.191339	0.000000	-0.970186	19.659100	-6.738860	-1.182200
